<mxfile host="app.diagrams.net" modified="2023-07-05T08:54:02.528Z" agent="Mozilla/5.0 (Windows NT 10.0; Win64; x64) AppleWebKit/537.36 (KHTML, like Gecko) Chrome/114.0.0.0 Safari/537.36" etag="_V4kt8PWPGygjErJtB1_" version="21.5.2" type="github">
  <diagram name="第 1 页" id="50Pj3qmbFHBt0m4N9vgs">
    <mxGraphModel dx="1877" dy="549" grid="1" gridSize="10" guides="1" tooltips="1" connect="1" arrows="1" fold="1" page="1" pageScale="1" pageWidth="827" pageHeight="1169" math="0" shadow="0">
      <root>
        <mxCell id="0" />
        <mxCell id="1" parent="0" />
        <mxCell id="HsFqMFKMABUnqnAjSl73-33" value="" style="strokeWidth=2;html=1;shape=mxgraph.flowchart.start_2;whiteSpace=wrap;fillColor=none;aspect=fixed;" vertex="1" parent="1">
          <mxGeometry x="-40" y="1040" width="560" height="560" as="geometry" />
        </mxCell>
        <mxCell id="HsFqMFKMABUnqnAjSl73-6" value="i" style="verticalLabelPosition=bottom;verticalAlign=top;html=1;shape=mxgraph.basic.donut;dx=60;aspect=fixed;" vertex="1" parent="1">
          <mxGeometry x="350" y="430" width="200" height="200" as="geometry" />
        </mxCell>
        <mxCell id="HsFqMFKMABUnqnAjSl73-1" value="" style="verticalLabelPosition=bottom;verticalAlign=top;html=1;shape=mxgraph.basic.pie;startAngle=0.2;endAngle=0.9;aspect=fixed;direction=south;" vertex="1" parent="1">
          <mxGeometry x="410" y="420" width="73" height="73" as="geometry" />
        </mxCell>
        <mxCell id="HsFqMFKMABUnqnAjSl73-7" value="" style="verticalLabelPosition=bottom;verticalAlign=top;html=1;shape=mxgraph.basic.pie;startAngle=0.2;endAngle=0.9;aspect=fixed;direction=west;rotation=-5;" vertex="1" parent="1">
          <mxGeometry x="477" y="510" width="73" height="73" as="geometry" />
        </mxCell>
        <mxCell id="HsFqMFKMABUnqnAjSl73-8" value="" style="verticalLabelPosition=bottom;verticalAlign=top;html=1;shape=mxgraph.basic.pie;startAngle=0.2;endAngle=0.9;aspect=fixed;direction=north;rotation=45;" vertex="1" parent="1">
          <mxGeometry x="360" y="540" width="73" height="73" as="geometry" />
        </mxCell>
        <mxCell id="HsFqMFKMABUnqnAjSl73-18" value="" style="verticalLabelPosition=bottom;verticalAlign=top;html=1;shape=mxgraph.basic.donut;dx=106.4;aspect=fixed;" vertex="1" parent="1">
          <mxGeometry x="520" y="80" width="360" height="360" as="geometry" />
        </mxCell>
        <mxCell id="HsFqMFKMABUnqnAjSl73-10" value="" style="verticalLabelPosition=bottom;verticalAlign=top;html=1;shape=mxgraph.basic.arc;startAngle=0.3;endAngle=0.1;aspect=fixed;rotation=-10;" vertex="1" parent="1">
          <mxGeometry x="510" y="90" width="170" height="170" as="geometry" />
        </mxCell>
        <mxCell id="HsFqMFKMABUnqnAjSl73-12" value="" style="endArrow=none;html=1;rounded=0;entryX=0.795;entryY=0.086;entryDx=0;entryDy=0;entryPerimeter=0;exitX=0.97;exitY=0.661;exitDx=0;exitDy=0;exitPerimeter=0;" edge="1" parent="1" source="HsFqMFKMABUnqnAjSl73-10" target="HsFqMFKMABUnqnAjSl73-10">
          <mxGeometry width="50" height="50" relative="1" as="geometry">
            <mxPoint x="679.55" y="179.58000000000004" as="sourcePoint" />
            <mxPoint x="649.55" y="99.58000000000004" as="targetPoint" />
            <Array as="points">
              <mxPoint x="599.55" y="169.58000000000004" />
            </Array>
          </mxGeometry>
        </mxCell>
        <mxCell id="HsFqMFKMABUnqnAjSl73-30" value="" style="verticalLabelPosition=bottom;verticalAlign=top;html=1;shape=mxgraph.basic.pie;startAngle=0.2;endAngle=0.9;aspect=fixed;rotation=45;direction=south;fillColor=none;" vertex="1" parent="1">
          <mxGeometry x="570" y="790" width="300" height="300" as="geometry" />
        </mxCell>
        <mxCell id="HsFqMFKMABUnqnAjSl73-32" value="" style="endArrow=none;html=1;rounded=0;exitX=0.256;exitY=0.058;exitDx=0;exitDy=0;exitPerimeter=0;entryX=0.195;entryY=0.1;entryDx=0;entryDy=0;entryPerimeter=0;" edge="1" parent="1" source="HsFqMFKMABUnqnAjSl73-34" target="HsFqMFKMABUnqnAjSl73-33">
          <mxGeometry width="50" height="50" relative="1" as="geometry">
            <mxPoint x="200" y="1169" as="sourcePoint" />
            <mxPoint x="70" y="1099" as="targetPoint" />
            <Array as="points">
              <mxPoint x="160" y="1120" />
            </Array>
          </mxGeometry>
        </mxCell>
        <mxCell id="HsFqMFKMABUnqnAjSl73-34" value="" style="strokeWidth=2;html=1;shape=mxgraph.flowchart.start_2;whiteSpace=wrap;fillColor=none;aspect=fixed;" vertex="1" parent="1">
          <mxGeometry x="120" y="1200" width="240" height="240" as="geometry" />
        </mxCell>
        <mxCell id="HsFqMFKMABUnqnAjSl73-35" value="" style="endArrow=none;html=1;rounded=0;exitX=1.003;exitY=0.476;exitDx=0;exitDy=0;exitPerimeter=0;entryX=0.979;entryY=0.634;entryDx=0;entryDy=0;entryPerimeter=0;" edge="1" parent="1" source="HsFqMFKMABUnqnAjSl73-33" target="HsFqMFKMABUnqnAjSl73-34">
          <mxGeometry width="50" height="50" relative="1" as="geometry">
            <mxPoint x="483" y="1428" as="sourcePoint" />
            <mxPoint x="361" y="1310" as="targetPoint" />
            <Array as="points">
              <mxPoint x="420" y="1270" />
            </Array>
          </mxGeometry>
        </mxCell>
        <mxCell id="HsFqMFKMABUnqnAjSl73-39" value="" style="endArrow=none;html=1;rounded=0;entryX=0.399;entryY=1.008;entryDx=0;entryDy=0;entryPerimeter=0;exitX=0.488;exitY=1.006;exitDx=0;exitDy=0;exitPerimeter=0;" edge="1" parent="1" source="HsFqMFKMABUnqnAjSl73-33" target="HsFqMFKMABUnqnAjSl73-34">
          <mxGeometry width="50" height="50" relative="1" as="geometry">
            <mxPoint x="230" y="1610" as="sourcePoint" />
            <mxPoint x="200" y="1430" as="targetPoint" />
            <Array as="points">
              <mxPoint x="170" y="1530" />
            </Array>
          </mxGeometry>
        </mxCell>
      </root>
    </mxGraphModel>
  </diagram>
</mxfile>
